PathFileType	4	(X/Y/Z)	Walk1_0-155.trc
DataRate	CameraRate	NumFrames	NumMarkers	Units	OrigDataRate	OrigDataStartFrame	OrigNumFrames
30	30	4	22	m	30	135	155
Frame#	Time	Hip			RHip			RKnee			RAnkle			RBigToe			RSmallToe			RHeel			LHip			LKnee			LAnkle			LBigToe			LSmallToe			LHeel			Neck			Head			Nose			RShoulder			RElbow			RWrist			LShoulder			LElbow			LWrist		
		X1	Y1	Z1	X2	Y2	Z2	X3	Y3	Z3	X4	Y4	Z4	X5	Y5	Z5	X6	Y6	Z6	X7	Y7	Z7	X8	Y8	Z8	X9	Y9	Z9	X10	Y10	Z10	X11	Y11	Z11	X12	Y12	Z12	X13	Y13	Z13	X14	Y14	Z14	X15	Y15	Z15	X16	Y16	Z16	X17	Y17	Z17	X18	Y18	Z18	X19	Y19	Z19	X20	Y20	Z20	X21	Y21	Z21	X22	Y22	Z22
136	4.533333333333333	1.7561753451456297	0.8902499631404461	0.38417084796790973	1.7937608682152077	0.865338488217637	0.49188815505251265	1.9371238871833687	0.5203766092028894	0.48485186560700577	1.9243797252871548	0.15127895928230928	0.4769795171370308	2.141078085075725	0.07376337542659094	0.4907830757992239	2.098734115323944	0.061261895364546806	0.5289829589461664	1.8917087105089954	0.07679138770454193	0.46981771861763016	1.7346419364605863	0.8592460132745864	0.28409397668745673	1.6892820876355992	0.4947895516190601	0.30638056828486904	1.639731048773481	0.10491955278407906	0.320114347637051	1.8077699395785876	0.039962772420605065	0.29367137618957245	1.7452663560909099	0.030995008506496897	0.24259544813161968	1.5851689847538921	0.03150004940321798	0.34056653530172704	1.6640138424416786	1.58511429373082	0.36559085785110285	1.7016975372795977	1.8366184478133978	0.36827934917170385	1.8534927195222184	1.6594400524981807	0.3631894081215833	1.6254573578502012	1.4592903992263127	0.5391737596445224	1.621441792945507	1.152832006578126	0.605581372018637	1.6311696665804671	0.902316783875148	0.6482473920973729	1.686704802593686	1.4702670869375496	0.20683001386718036	1.7756905547763318	1.181520019943814	0.12124053690181531	2.0138870148775707	1.012249346420319	0.13786070955701635
137	4.566666666666666	1.7876075143006385	0.8860099390381548	0.38740439196899534	1.826548571832233	0.8618486285430623	0.49317822745127354	1.9588718007572448	0.5072914983389746	0.48155851070147	2.017780770713321	0.12983633932403574	0.48031684900663857	2.2503650248505602	0.08244236041042685	0.4832269278200448	2.209168258928405	0.06380990967260557	0.524515157108667	1.9967745335210267	0.04990841768322492	0.4742836098202669	1.7655985455986434	0.8573327237020629	0.28672736545246746	1.7025043983931847	0.4945094816946632	0.3024508513380093	1.6381526717100576	0.10495910557893191	0.31981796115356054	1.807670943416476	0.03909204075100177	0.28911980998803366	1.7411046140956028	0.030244457102627194	0.24126674351269095	1.584038812479157	0.032817983562050505	0.34294195348412915	1.6942517278026425	1.5805037583355153	0.36527112047645677	1.732400229597216	1.8327639952680812	0.3695495517608294	1.8853857008199222	1.6532824128917114	0.3645949252074294	1.6589846574042477	1.4564445822041463	0.542204941349529	1.643611513547348	1.1509673756098284	0.6092065419052837	1.6454701836057783	0.8983885302479426	0.6530813768548308	1.7209557294364157	1.4662356263468213	0.21185328512667218	1.8049875471845191	1.1789014535359006	0.11633551537380063	2.0609987618687806	1.020302375220986	0.13980381992320448
138	4.6	1.8215664308746804	0.8809733597259081	0.3909205671536113	1.8620916808101893	0.8580127464326451	0.4950661093005	1.9804558446560774	0.49571359808987286	0.4788605131334935	2.0953164786365646	0.11638588940484407	0.48293663079402793	2.3338215936736173	0.0899369949499101	0.4771127229722606	2.2937524146502977	0.0683915282244487	0.5220753516335735	2.0832982433740157	0.03305678578363038	0.47742816926012965	1.7992248368604347	0.8554651410940671	0.2885939780301692	1.7216716455226708	0.4934070024352219	0.29946717993113425	1.6355762952871733	0.10547145905613349	0.32010217406935393	1.811173344292849	0.03631418929372083	0.2873495490229222	1.7433729869890484	0.027822224619889306	0.24302224991167787	1.5833341820109597	0.034605671851160806	0.34493910574358955	1.725126424374076	1.574534540211761	0.36661873336111495	1.7642863239414932	1.8275896977418675	0.3725287473552882	1.9162200225897306	1.6474931197485492	0.36553482058860565	1.692206332430238	1.4523498432860211	0.5458153102552721	1.6694973806167115	1.1475320750492504	0.6132912440644491	1.6653128039608638	0.8928256666478438	0.6578755844827271	1.7549945994937952	1.4604597851333472	0.21773327963053501	1.83365401333369	1.1732464204100295	0.1141191584506685	2.09784657249088	1.021484183999601	0.14049242646784238
139	4.633333333333334	1.8579169213147708	0.8753795591029471	0.39498359860617493	1.9004157445212382	0.853756206382317	0.4979839254516752	2.0056806687955273	0.48622223364318795	0.47788527184151747	2.1552418935865436	0.10743201810227447	0.4841288215095173	2.392276216125329	0.0912801269656812	0.47381950837232134	2.353618481718025	0.06998826662153267	0.5219822815548145	2.1483084789476403	0.022428987789449545	0.47875657571464497	1.8352002427902374	0.8533636299435011	0.29032128892970355	1.747037072171609	0.49172608648199345	0.2974785497874373	1.6334275450257512	0.10780040026996833	0.32065734165343424	1.8154328443013974	0.03235615870657053	0.28776766390686687	1.750108798211167	0.024834569197895215	0.24724552763406316	1.5827210899714645	0.038559164974679164	0.34639743774198284	1.7576297114191481	1.567916043559377	0.3706714767776656	1.7965476762518677	1.8217171410280246	0.376767860540848	1.9456995648433955	1.6428218132061756	0.366149905302737	1.7250920102371732	1.447155860606557	0.5498479948526497	1.6996204260656165	1.1422954917719066	0.6178748191568202	1.691279933758755	0.8858146066423402	0.6629045267222446	1.788374433825637	1.453474959737138	0.2238090268138772	1.8647947154567015	1.165685720185667	0.11739062680562613	2.1259461400636033	1.0157278468511108	0.14064610576015588
